<?xml version="1.0" standalone="no"?>
<!DOCTYPE svg PUBLIC "-//W3C//DTD SVG 20010904//EN"
 "http://www.w3.org/TR/2001/REC-SVG-20010904/DTD/svg10.dtd">
<svg version="1.0" xmlns="http://www.w3.org/2000/svg"
 width="512.000000pt" height="512.000000pt" viewBox="0 0 512.000000 512.000000"
 preserveAspectRatio="xMidYMid meet">
<metadata>
Created by potrace 1.14, written by Peter Selinger 2001-2017
</metadata>
<g transform="translate(0.000000,512.000000) scale(0.100000,-0.100000)"
fill="#000000" stroke="none">
<path d="M0 2560 l0 -2560 2560 0 2560 0 0 2560 0 2560 -2560 0 -2560 0 0
-2560z m2254 2141 c76 -37 142 -106 183 -189 l28 -57 3 -1245 c2 -942 0 -1256
-9 -1290 -77 -288 -411 -419 -674 -264 -56 33 -133 116 -165 180 l-25 49 -95
6 c-122 7 -200 41 -283 122 -85 82 -119 163 -127 292 l-5 100 -68 46 c-181
122 -262 333 -212 547 24 100 59 160 142 239 l75 72 -16 63 c-21 82 -21 209 0
279 36 120 112 225 204 277 75 42 77 46 72 105 -5 65 18 162 54 222 59 101
172 174 297 191 46 6 48 8 74 63 50 104 163 200 263 222 19 4 77 7 127 5 81
-3 102 -7 157 -35z m970 6 c72 -33 154 -115 189 -189 15 -31 31 -59 35 -62 5
-3 36 -9 69 -15 34 -5 81 -19 104 -31 55 -27 154 -123 180 -172 29 -57 52
-166 45 -219 l-6 -47 52 -30 c74 -42 161 -135 199 -212 31 -61 33 -73 37 -191
3 -97 1 -139 -12 -180 l-16 -54 33 -25 c92 -70 151 -152 183 -259 18 -58 18
-233 0 -292 -36 -118 -118 -226 -215 -282 l-56 -33 -5 -90 c-3 -59 -13 -113
-30 -159 -21 -59 -36 -82 -100 -146 -93 -94 -153 -120 -280 -127 -47 -2 -91
-9 -98 -15 -8 -6 -24 -31 -37 -56 -27 -54 -124 -150 -180 -179 -202 -102 -453
-46 -578 129 -89 126 -82 5 -85 1384 -3 1293 -4 1282 44 1376 27 55 113 141
163 166 108 51 264 56 365 10z m1586 -3297 c70 -37 39 -234 -68 -433 l-38 -72
14 -68 c7 -38 11 -75 8 -83 -9 -24 -64 -17 -82 11 l-16 25 -30 -25 c-58 -49
-148 -23 -166 48 -7 29 -13 33 -54 37 -62 8 -78 23 -78 77 0 31 -4 43 -12 41
-17 -6 -54 -72 -74 -133 -30 -93 -61 -117 -99 -78 -16 15 -19 15 -45 0 -41
-25 -77 -21 -105 9 l-24 26 -31 -26 c-39 -32 -87 -34 -124 -5 -26 20 -28 20
-74 4 -26 -9 -85 -19 -133 -22 -112 -7 -184 13 -244 68 -62 57 -79 107 -73
217 3 76 9 100 36 155 56 114 152 177 266 177 101 0 160 -54 160 -145 0 -67
-22 -97 -68 -93 -31 3 -31 3 -31 67 -1 70 -16 91 -66 91 -63 0 -124 -43 -162
-115 -29 -57 -35 -196 -10 -245 41 -79 140 -106 270 -74 76 19 87 27 97 74 9
42 56 106 99 134 46 29 104 35 113 11 4 -9 14 -13 28 -10 11 3 28 1 36 -4 14
-10 10 -62 -16 -194 -8 -41 20 -46 57 -11 22 21 29 37 29 66 0 52 19 129 38
151 15 17 67 24 76 9 3 -5 -1 -33 -9 -63 -21 -76 -19 -77 18 -23 37 56 88 94
127 94 42 0 52 -20 44 -89 -5 -49 -4 -61 7 -61 20 0 31 10 61 55 30 44 81 82
124 94 26 7 29 13 40 78 34 200 103 296 184 253z m-4289 -69 c21 -17 24 -28
24 -89 l0 -69 23 46 c43 84 105 131 174 131 60 0 107 -55 109 -127 0 -16 3
-22 6 -13 3 8 19 34 35 58 56 82 163 108 218 54 44 -45 46 -82 11 -247 -39
-184 -40 -231 -6 -247 18 -8 32 -8 55 2 24 10 30 18 30 44 0 110 75 196 169
196 57 0 96 -35 96 -87 0 -57 -27 -91 -98 -123 -58 -26 -60 -28 -37 -40 32
-17 94 -7 141 24 33 22 39 32 39 62 0 49 20 126 38 147 15 17 67 24 76 9 3 -5
-1 -33 -9 -63 -19 -72 -18 -82 5 -38 28 53 94 109 129 109 42 0 55 -21 48 -81
l-6 -51 30 45 c47 72 124 108 157 75 16 -16 15 -68 -3 -148 -18 -83 -18 -89 1
-97 22 -8 64 35 64 66 0 44 20 99 47 131 76 90 199 78 238 -24 10 -25 22 -46
27 -46 25 0 46 23 53 57 4 21 14 46 22 56 16 17 68 24 77 9 3 -5 -1 -33 -9
-63 -21 -76 -19 -77 18 -23 37 56 88 94 127 94 42 0 52 -20 44 -89 -5 -49 -4
-61 7 -61 27 0 41 17 50 61 15 64 34 89 70 89 39 0 43 -13 24 -91 -19 -80 -20
-152 -2 -147 18 6 54 74 78 148 27 81 34 90 70 90 25 0 29 -4 29 -29 0 -38
-47 -319 -66 -396 -49 -201 -142 -292 -228 -224 -22 17 -26 29 -26 68 0 69 50
140 162 227 15 12 30 34 34 50 l7 29 -32 -33 c-57 -56 -121 -32 -136 52 -6 30
-8 31 -46 28 -61 -6 -89 17 -89 74 0 32 -4 44 -12 42 -17 -6 -54 -72 -74 -133
-9 -27 -23 -60 -30 -72 -29 -46 -84 -18 -84 42 0 48 -9 65 -34 65 -15 0 -26
-12 -39 -41 -40 -84 -137 -114 -211 -64 l-37 25 -31 -21 c-17 -12 -52 -24 -78
-27 -42 -4 -49 -1 -69 24 -24 30 -25 54 -5 169 l7 40 -26 -24 c-23 -21 -42
-60 -79 -166 -18 -51 -57 -61 -84 -20 -14 21 -15 40 -9 117 6 85 6 91 -10 78
-22 -18 -39 -53 -65 -132 -12 -37 -28 -72 -36 -78 -19 -16 -61 -5 -69 19 -5
17 -8 17 -53 -6 -60 -31 -151 -29 -198 4 l-30 21 -39 -24 c-75 -45 -168 -25
-200 42 -22 47 -19 103 17 266 26 121 29 152 20 173 -27 60 -104 4 -152 -111
-31 -75 -62 -200 -75 -304 -4 -30 -14 -63 -23 -72 -21 -25 -69 -23 -83 3 -12
24 -10 49 27 248 13 74 24 160 24 192 0 54 -2 59 -25 65 -87 22 -172 -149
-215 -431 -13 -80 -22 -95 -59 -95 -59 0 -62 28 -27 252 43 273 42 291 -12
269 -16 -7 -46 -30 -67 -51 -30 -30 -42 -37 -52 -29 -22 19 -14 54 23 97 65
77 155 104 205 63z"/>
<path d="M1702 3625 c-188 -42 -296 -149 -296 -290 1 -88 44 -158 117 -190
l29 -12 -59 -22 c-127 -48 -200 -135 -210 -251 -18 -197 195 -314 537 -296
283 15 456 86 448 184 -5 56 -22 59 -134 24 -149 -48 -269 -65 -399 -59 -138
7 -180 19 -227 67 -34 33 -38 43 -38 87 0 104 86 168 250 183 50 5 98 14 105
20 20 16 29 74 16 98 -8 15 -24 20 -80 24 -137 10 -202 93 -157 202 30 72 118
111 240 104 67 -3 79 -7 103 -30 28 -29 31 -45 23 -150 -4 -58 18 -88 64 -88
69 0 106 58 106 165 0 104 -45 172 -143 215 -64 28 -206 36 -295 15z"/>
<path d="M3205 3640 c-131 -19 -273 -73 -328 -124 -34 -32 -38 -93 -7 -121 20
-18 23 -17 113 29 163 83 328 107 456 67 127 -39 191 -129 199 -276 9 -174
-42 -321 -143 -414 -76 -69 -142 -92 -277 -99 l-108 -5 6 49 c14 120 56 357
79 444 49 184 47 190 -46 190 -82 0 -90 -11 -127 -167 -65 -271 -105 -560 -83
-601 18 -33 82 -46 236 -46 159 -1 227 13 340 69 175 85 280 245 306 469 27
228 -56 408 -225 487 -112 52 -251 70 -391 49z"/>
<path d="M4751 1331 c-12 -22 -37 -168 -44 -251 l-4 -55 24 54 c13 30 31 80
39 110 25 96 14 197 -15 142z"/>
<path d="M3908 994 c-61 -33 -92 -165 -41 -172 28 -4 48 27 63 93 5 28 12 60
15 73 6 26 0 27 -37 6z"/>
<path d="M4566 978 c-75 -75 -53 -202 24 -140 21 17 23 26 21 93 -1 40 -4 75
-6 78 -3 2 -20 -12 -39 -31z"/>
<path d="M1321 984 c-11 -15 -21 -38 -21 -51 0 -21 3 -23 23 -17 36 11 58 36
55 63 -4 35 -31 38 -57 5z"/>
<path d="M2161 974 c-28 -36 -29 -114 -1 -139 25 -23 67 -13 81 19 9 20 7 29
-10 53 -12 16 -22 43 -24 61 -2 39 -19 41 -46 6z"/>
<path d="M2812 605 c-43 -49 -61 -100 -43 -118 18 -18 48 20 72 90 11 35 19
66 16 69 -2 3 -23 -16 -45 -41z"/>
</g>
</svg>
